G04 DesignSpark PCB Gerber Version 11.0 Build 5877*
G04 #@! TF.Part,Single*
G04 #@! TF.FilePolarity,Positive*
%FSLAX35Y35*%
%MOIN*%
G04 #@! TA.AperFunction,ViaDrill*
%ADD26C,0.02400*%
G04 #@! TA.AperFunction,ComponentDrill*
%ADD28C,0.02988*%
%ADD29C,0.02992*%
%ADD72C,0.03200*%
%ADD73C,0.03937*%
%ADD27C,0.04016*%
G04 #@! TD.AperFunction*
X0Y0D02*
D02*
D26*
X15600Y173683D03*
X19600Y155900D03*
Y180900D03*
X23100Y116807D03*
X48116Y128400D03*
X53100Y69055D03*
Y83400D03*
X60600Y148400D03*
X65600Y73039D03*
X69850Y9750D03*
Y80274D03*
X73834Y69055D03*
X78100Y135915D03*
X90584Y154132D03*
X95466Y58384D03*
X96616Y9750D03*
X98100Y116807D03*
Y188400D03*
X100600Y35018D03*
X102366Y158400D03*
X112366Y85900D03*
X125466Y35018D03*
X131962Y134415D03*
X135946Y148400D03*
Y185900D03*
X141230Y69055D03*
Y173683D03*
X148100Y73039D03*
Y128400D03*
X155466Y35018D03*
X158100Y138400D03*
X163381Y80274D03*
Y180900D03*
X200600Y35018D03*
Y80274D03*
Y134132D03*
X205734Y10766D03*
X206750Y160884D03*
D02*
D27*
X80600Y15900D03*
Y25900D03*
X90600Y15900D03*
Y25900D03*
X100600Y15900D03*
Y25900D03*
X110600Y15900D03*
Y25900D03*
X120600Y15900D03*
Y25900D03*
X130600Y15900D03*
Y25900D03*
X140600Y15900D03*
Y25900D03*
X150600Y15900D03*
Y25900D03*
X160600Y15900D03*
Y25900D03*
X170600Y15900D03*
Y25900D03*
X180600Y15900D03*
Y25900D03*
X190600Y15900D03*
Y25900D03*
X200600Y15900D03*
Y25900D03*
D02*
D28*
X78100Y80274D03*
Y111526D03*
X88100Y80274D03*
Y111526D03*
X98100Y80274D03*
Y111526D03*
X108100Y80274D03*
Y111526D03*
X118100Y80274D03*
Y111526D03*
X128100Y80274D03*
Y111526D03*
X138100Y80274D03*
Y111526D03*
X148100Y80274D03*
Y111526D03*
X158100Y80274D03*
Y111526D03*
D02*
D29*
X109970Y138400D03*
Y148400D03*
Y158400D03*
Y168400D03*
X141230Y138400D03*
Y148400D03*
Y158400D03*
Y168400D03*
D02*
D72*
X15600Y128400D03*
X18100Y18400D03*
X23100Y83400D03*
X25600Y155900D03*
X53100Y83400D03*
X55600Y128400D03*
X58100Y18400D03*
X60600Y53400D03*
X65600Y155900D03*
X85600Y140900D03*
Y180900D03*
X100600Y53400D03*
X170600Y155900D03*
Y185900D03*
X200600Y108400D03*
Y148400D03*
D02*
D73*
X28100Y188400D03*
X58100D03*
X193100Y55900D03*
Y85900D03*
X0Y0D02*
M02*
