G05
M48
;#@! TF.GenerationSoftware,DesignSpark,DesignSpark PCB,11.0.5875
;#@! TF.CreationDate,2024-02-23T15:52:50+00:00*
;#@! TF.FileFunction,Plated,1,2,PTH
;FILE_FORMAT=3:5
;TYPE=PLATED
INCH,TZ
FMAT,2
T1C000.02400
T2C000.02988
T3C000.02992
T4C000.03200
T5C000.03937
T6C000.04016
%
T001
X0.15600Y1.73683
X0.19600Y1.55900
X0.19600Y1.80900
X0.23100Y1.16807
X0.48116Y1.28400
X0.53100Y0.69055
X0.53100Y0.83400
X0.60600Y1.48400
X0.65600Y0.73039
X0.69850Y0.09750
X0.69850Y0.80274
X0.73834Y0.69055
X0.78100Y1.35915
X0.90584Y1.54132
X0.95466Y0.58384
X0.96616Y0.09750
X0.98100Y1.16807
X0.98100Y1.88400
X1.00600Y0.35018
X1.02366Y1.58400
X1.12366Y0.85900
X1.25466Y0.35018
X1.31962Y1.34415
X1.35946Y1.48400
X1.35946Y1.85900
X1.41230Y0.69055
X1.41230Y1.73683
X1.48100Y0.73039
X1.48100Y1.28400
X1.55466Y0.35018
X1.58100Y1.38400
X1.63381Y0.80274
X1.63381Y1.80900
X2.00600Y0.35018
X2.00600Y0.80274
X2.00600Y1.34132
X2.05734Y0.10766
X2.06750Y1.60884
T002
X0.78100Y0.80274
X0.78100Y1.11526
X0.88100Y0.80274
X0.88100Y1.11526
X0.98100Y0.80274
X0.98100Y1.11526
X1.08100Y0.80274
X1.08100Y1.11526
X1.18100Y0.80274
X1.18100Y1.11526
X1.28100Y0.80274
X1.28100Y1.11526
X1.38100Y0.80274
X1.38100Y1.11526
X1.48100Y0.80274
X1.48100Y1.11526
X1.58100Y0.80274
X1.58100Y1.11526
T003
X1.09970Y1.38400
X1.09970Y1.48400
X1.09970Y1.58400
X1.09970Y1.68400
X1.41230Y1.38400
X1.41230Y1.48400
X1.41230Y1.58400
X1.41230Y1.68400
T004
X0.15600Y1.28400
X0.18100Y0.18400
X0.23100Y0.83400
X0.25600Y1.55900
X0.53100Y0.83400
X0.55600Y1.28400
X0.58100Y0.18400
X0.60600Y0.53400
X0.65600Y1.55900
X0.85600Y1.40900
X0.85600Y1.80900
X1.00600Y0.53400
X1.70600Y1.55900
X1.70600Y1.85900
X2.00600Y1.08400
X2.00600Y1.48400
T005
X0.28100Y1.88400
X0.58100Y1.88400
X1.93100Y0.55900
X1.93100Y0.85900
T006
X0.80600Y0.15900
X0.80600Y0.25900
X0.90600Y0.15900
X0.90600Y0.25900
X1.00600Y0.15900
X1.00600Y0.25900
X1.10600Y0.15900
X1.10600Y0.25900
X1.20600Y0.15900
X1.20600Y0.25900
X1.30600Y0.15900
X1.30600Y0.25900
X1.40600Y0.15900
X1.40600Y0.25900
X1.50600Y0.15900
X1.50600Y0.25900
X1.60600Y0.15900
X1.60600Y0.25900
X1.70600Y0.15900
X1.70600Y0.25900
X1.80600Y0.15900
X1.80600Y0.25900
X1.90600Y0.15900
X1.90600Y0.25900
X2.00600Y0.15900
X2.00600Y0.25900
M30
