G04 DesignSpark PCB Gerber Version 11.0 Build 5877*
G04 #@! TF.Part,Single*
G04 #@! TF.FileFunction,Copper,L2,Bot*
G04 #@! TF.FilePolarity,Positive*
%FSLAX35Y35*%
%MOIN*%
G04 #@! TA.AperFunction,ComponentPad*
%ADD13R,0.04563X0.04563*%
%ADD15R,0.04567X0.04567*%
G04 #@! TD.AperFunction*
%ADD10C,0.01969*%
G04 #@! TA.AperFunction,ViaPad*
%ADD11C,0.04000*%
G04 #@! TA.AperFunction,ComponentPad*
%ADD14C,0.04563*%
%ADD16C,0.04567*%
%ADD17C,0.06000*%
%ADD12C,0.06299*%
%ADD18C,0.06693*%
G04 #@! TD.AperFunction*
X0Y0D02*
D02*
D10*
X15600Y173683D02*
Y128400D01*
X19600Y155900D02*
Y180900D01*
X23100Y116807D02*
Y83400D01*
X48116Y128400D02*
Y22508D01*
X52224Y18400D01*
X58100D01*
X53100Y69055D02*
Y83400D01*
X55600Y128400D02*
X60600Y148400D02*
Y53400D01*
X65600Y73039D02*
Y155900D01*
X69850Y9750D02*
Y80274D01*
X78100Y135915D02*
Y111526D01*
X85600Y180900D02*
X90584Y154132D02*
Y155900D01*
X85600Y160884D01*
X33100D01*
X28100Y165884D01*
Y188400D01*
X90584Y154132D02*
Y111526D01*
X88100D01*
X90600Y25900D02*
Y34002D01*
X95600Y39002D01*
X103100D01*
X108100Y44002D01*
Y80274D01*
X95466Y58384D02*
X98100D01*
Y80274D01*
X96616Y9750D02*
X78834D01*
X73834Y14750D01*
Y69055D01*
X98100Y80274D02*
Y82041D01*
X95602Y84539D01*
X88834D01*
X83834Y89539D01*
Y140900D01*
X85600D01*
X98100Y80274D02*
Y116807D02*
Y111526D01*
Y116807D02*
Y188400D01*
X100600Y35018D02*
Y25900D01*
Y53400D02*
X102366Y158400D02*
Y53400D01*
X100600D01*
X108100Y80274D02*
X109970Y138400D02*
X110600Y25900D02*
Y28167D01*
X113466Y31033D01*
X115234D01*
X118100Y33900D01*
Y80274D01*
X112366Y85900D02*
Y134132D01*
X114238D01*
Y145900D01*
X111738Y148400D01*
X109970D01*
X118100Y80274D02*
X125466Y35018D02*
Y80274D01*
X128100D01*
X131962Y134415D02*
X132819D01*
Y83787D01*
X136332Y80274D01*
X138100D01*
X135946Y148400D02*
Y185900D01*
X138100Y80274D02*
X141230Y69055D02*
X142366D01*
Y117478D01*
X140598D01*
X135946Y122130D01*
Y144884D01*
X139462Y148400D01*
X141230D01*
Y173683D02*
Y168400D01*
X148100Y73039D02*
Y80274D01*
Y128400D02*
Y111526D01*
X155466Y35018D02*
Y80274D01*
X158100D01*
Y138400D02*
Y111526D01*
X163381Y80274D02*
Y180900D01*
X200600Y35018D02*
Y25900D01*
Y80274D02*
Y108400D01*
Y134132D02*
Y148400D01*
X205734Y10766D02*
X103966D01*
X100600Y14132D01*
Y15900D01*
X206750Y160884D02*
Y20281D01*
X202368Y15900D01*
X200600D01*
D02*
D11*
X15600Y173683D03*
X19600Y155900D03*
Y180900D03*
X23100Y116807D03*
X48116Y128400D03*
X53100Y69055D03*
Y83400D03*
X60600Y148400D03*
X65600Y73039D03*
X69850Y9750D03*
Y80274D03*
X73834Y69055D03*
X78100Y135915D03*
X90584Y154132D03*
X95466Y58384D03*
X96616Y9750D03*
X98100Y116807D03*
Y188400D03*
X100600Y35018D03*
X102366Y158400D03*
X112366Y85900D03*
X125466Y35018D03*
X131962Y134415D03*
X135946Y148400D03*
Y185900D03*
X141230Y69055D03*
Y173683D03*
X148100Y73039D03*
Y128400D03*
X155466Y35018D03*
X158100Y138400D03*
X163381Y80274D03*
Y180900D03*
X200600Y35018D03*
Y80274D03*
Y134132D03*
X205734Y10766D03*
X206750Y160884D03*
D02*
D12*
X80600Y15900D03*
Y25900D03*
X90600Y15900D03*
Y25900D03*
X100600Y15900D03*
Y25900D03*
X110600Y15900D03*
Y25900D03*
X120600Y15900D03*
Y25900D03*
X130600Y15900D03*
Y25900D03*
X140600Y15900D03*
Y25900D03*
X150600Y15900D03*
Y25900D03*
X160600Y15900D03*
Y25900D03*
X170600Y15900D03*
Y25900D03*
X180600Y15900D03*
Y25900D03*
X190600Y15900D03*
Y25900D03*
X200600Y15900D03*
Y25900D03*
D02*
D13*
X158100Y111526D03*
D02*
D14*
X78100Y80274D03*
Y111526D03*
X88100Y80274D03*
Y111526D03*
X98100Y80274D03*
Y111526D03*
X108100Y80274D03*
Y111526D03*
X118100Y80274D03*
Y111526D03*
X128100Y80274D03*
Y111526D03*
X138100Y80274D03*
Y111526D03*
X148100Y80274D03*
Y111526D03*
X158100Y80274D03*
D02*
D15*
X141230Y138400D03*
D02*
D16*
X109970D03*
Y148400D03*
Y158400D03*
Y168400D03*
X141230Y148400D03*
Y158400D03*
Y168400D03*
D02*
D17*
X15600Y128400D03*
X18100Y18400D03*
X23100Y83400D03*
X25600Y155900D03*
X53100Y83400D03*
X55600Y128400D03*
X58100Y18400D03*
X60600Y53400D03*
X65600Y155900D03*
X85600Y140900D03*
Y180900D03*
X100600Y53400D03*
X170600Y155900D03*
Y185900D03*
X200600Y108400D03*
Y148400D03*
D02*
D18*
X28100Y188400D03*
X58100D03*
X193100Y55900D03*
Y85900D03*
X0Y0D02*
M02*
