G04 DesignSpark PCB Gerber Version 11.0 Build 5877*
G04 #@! TF.Part,Single*
G04 #@! TF.FileFunction,Drillmap*
G04 #@! TF.FilePolarity,Positive*
%FSLAX35Y35*%
%MOIN*%
%ADD24C,0.00500*%
G04 #@! TA.AperFunction,ViaPad*
%ADD74C,0.10000*%
G04 #@! TD.AperFunction*
X0Y0D02*
D02*
D24*
X25600Y134337D02*
Y138087D01*
X28725D01*
X28100Y136212D02*
X25600D01*
Y134337D02*
X28725D01*
X25600Y179620D02*
X27163Y183370D01*
X28725Y179620D01*
X26225Y181183D02*
X28100D01*
Y24337D02*
Y28087D01*
X31225D01*
X30600Y26212D02*
X28100D01*
Y24337D02*
X31225D01*
X29600Y161837D02*
X31163Y165587D01*
X32725Y161837D01*
X30225Y163400D02*
X32100D01*
X29600Y186837D02*
X31163Y190587D01*
X32725Y186837D01*
X30225Y188400D02*
X32100D01*
X33100Y89337D02*
Y93087D01*
X36225D01*
X35600Y91212D02*
X33100D01*
Y89337D02*
X36225D01*
X33100Y122744D02*
X34663Y126494D01*
X36225Y122744D01*
X33725Y124307D02*
X35600D01*
Y161837D02*
Y165587D01*
X38725D01*
X38100Y163712D02*
X35600D01*
Y161837D02*
X38725D01*
X38100Y194337D02*
Y198087D01*
X41225D01*
X40600Y196212D02*
X38100D01*
X58116Y134337D02*
X59678Y138087D01*
X61241Y134337D01*
X58741Y135900D02*
X60616D01*
X63100Y74993D02*
X64663Y78743D01*
X66225Y74993D01*
X63725Y76555D02*
X65600D01*
X63100Y89337D02*
Y93087D01*
X66225D01*
X65600Y91212D02*
X63100D01*
Y89337D02*
X66225D01*
X63100D02*
X64663Y93087D01*
X66225Y89337D01*
X63725Y90900D02*
X65600D01*
Y134337D02*
Y138087D01*
X68725D01*
X68100Y136212D02*
X65600D01*
Y134337D02*
X68725D01*
X68100Y24337D02*
Y28087D01*
X71225D01*
X70600Y26212D02*
X68100D01*
Y24337D02*
X71225D01*
X68100Y194337D02*
Y198087D01*
X71225D01*
X70600Y196212D02*
X68100D01*
X70600Y59337D02*
Y63087D01*
X73725D01*
X73100Y61212D02*
X70600D01*
Y59337D02*
X73725D01*
X70600Y154337D02*
X72163Y158087D01*
X73725Y154337D01*
X71225Y155900D02*
X73100D01*
X75600Y78977D02*
X77163Y82727D01*
X78725Y78977D01*
X76225Y80539D02*
X78100D01*
X75600Y161837D02*
Y165587D01*
X78725D01*
X78100Y163712D02*
X75600D01*
Y161837D02*
X78725D01*
X79850Y15687D02*
X81413Y19437D01*
X82975Y15687D01*
X80475Y17250D02*
X82350D01*
X79850Y86211D02*
X81413Y89961D01*
X82975Y86211D01*
X80475Y87774D02*
X82350D01*
X83834Y74993D02*
X85397Y78743D01*
X86959Y74993D01*
X84459Y76555D02*
X86334D01*
X91225Y86836D02*
X90913Y86524D01*
X90287Y86211D01*
X89350D01*
X88725Y86524D01*
X88413Y86836D01*
X88100Y87461D01*
Y88711D01*
X88413Y89336D01*
X88725Y89649D01*
X89350Y89961D01*
X90287D01*
X90913Y89649D01*
X91225Y89336D01*
Y118088D02*
X90913Y117776D01*
X90287Y117463D01*
X89350D01*
X88725Y117776D01*
X88413Y118088D01*
X88100Y118713D01*
Y119963D01*
X88413Y120588D01*
X88725Y120901D01*
X89350Y121213D01*
X90287D01*
X90913Y120901D01*
X91225Y120588D01*
X88100Y141853D02*
X89663Y145603D01*
X91225Y141853D01*
X88725Y143415D02*
X90600D01*
X92787Y23712D02*
X93413Y23400D01*
X93725Y22775D01*
X93413Y22150D01*
X92787Y21837D01*
X90600D01*
Y25587D01*
X92787D01*
X93413Y25275D01*
X93725Y24650D01*
X93413Y24025D01*
X92787Y23712D01*
X90600D01*
X92787Y33712D02*
X93413Y33400D01*
X93725Y32775D01*
X93413Y32150D01*
X92787Y31837D01*
X90600D01*
Y35587D01*
X92787D01*
X93413Y35275D01*
X93725Y34650D01*
X93413Y34025D01*
X92787Y33712D01*
X90600D01*
X95600Y146837D02*
Y150587D01*
X98725D01*
X98100Y148712D02*
X95600D01*
Y146837D02*
X98725D01*
X95600Y186837D02*
Y190587D01*
X98725D01*
X98100Y188712D02*
X95600D01*
Y186837D02*
X98725D01*
X101225Y86836D02*
X100913Y86524D01*
X100287Y86211D01*
X99350D01*
X98725Y86524D01*
X98413Y86836D01*
X98100Y87461D01*
Y88711D01*
X98413Y89336D01*
X98725Y89649D01*
X99350Y89961D01*
X100287D01*
X100913Y89649D01*
X101225Y89336D01*
Y118088D02*
X100913Y117776D01*
X100287Y117463D01*
X99350D01*
X98725Y117776D01*
X98413Y118088D01*
X98100Y118713D01*
Y119963D01*
X98413Y120588D01*
X98725Y120901D01*
X99350Y121213D01*
X100287D01*
X100913Y120901D01*
X101225Y120588D01*
X100584Y160069D02*
X102147Y163819D01*
X103709Y160069D01*
X101209Y161632D02*
X103084D01*
X102787Y23712D02*
X103413Y23400D01*
X103725Y22775D01*
X103413Y22150D01*
X102787Y21837D01*
X100600D01*
Y25587D01*
X102787D01*
X103413Y25275D01*
X103725Y24650D01*
X103413Y24025D01*
X102787Y23712D01*
X100600D01*
X102787Y33712D02*
X103413Y33400D01*
X103725Y32775D01*
X103413Y32150D01*
X102787Y31837D01*
X100600D01*
Y35587D01*
X102787D01*
X103413Y35275D01*
X103725Y34650D01*
X103413Y34025D01*
X102787Y33712D01*
X100600D01*
X105466Y64321D02*
X107029Y68071D01*
X108591Y64321D01*
X106091Y65884D02*
X107966D01*
X106616Y15687D02*
X108178Y19437D01*
X109741Y15687D01*
X107241Y17250D02*
X109116D01*
X111225Y86836D02*
X110913Y86524D01*
X110287Y86211D01*
X109350D01*
X108725Y86524D01*
X108413Y86836D01*
X108100Y87461D01*
Y88711D01*
X108413Y89336D01*
X108725Y89649D01*
X109350Y89961D01*
X110287D01*
X110913Y89649D01*
X111225Y89336D01*
Y118088D02*
X110913Y117776D01*
X110287Y117463D01*
X109350D01*
X108725Y117776D01*
X108413Y118088D01*
X108100Y118713D01*
Y119963D01*
X108413Y120588D01*
X108725Y120901D01*
X109350Y121213D01*
X110287D01*
X110913Y120901D01*
X111225Y120588D01*
X108100Y122744D02*
X109663Y126494D01*
X111225Y122744D01*
X108725Y124307D02*
X110600D01*
X108100Y194337D02*
X109663Y198087D01*
X111225Y194337D01*
X108725Y195900D02*
X110600D01*
X112787Y23712D02*
X113413Y23400D01*
X113725Y22775D01*
X113413Y22150D01*
X112787Y21837D01*
X110600D01*
Y25587D01*
X112787D01*
X113413Y25275D01*
X113725Y24650D01*
X113413Y24025D01*
X112787Y23712D01*
X110600D01*
X112787Y33712D02*
X113413Y33400D01*
X113725Y32775D01*
X113413Y32150D01*
X112787Y31837D01*
X110600D01*
Y35587D01*
X112787D01*
X113413Y35275D01*
X113725Y34650D01*
X113413Y34025D01*
X112787Y33712D01*
X110600D01*
Y40955D02*
X112163Y44705D01*
X113725Y40955D01*
X111225Y42518D02*
X113100D01*
X110600Y59337D02*
Y63087D01*
X113725D01*
X113100Y61212D02*
X110600D01*
Y59337D02*
X113725D01*
X112366Y164337D02*
X113928Y168087D01*
X115491Y164337D01*
X112991Y165900D02*
X114866D01*
X121225Y86836D02*
X120913Y86524D01*
X120287Y86211D01*
X119350D01*
X118725Y86524D01*
X118413Y86836D01*
X118100Y87461D01*
Y88711D01*
X118413Y89336D01*
X118725Y89649D01*
X119350Y89961D01*
X120287D01*
X120913Y89649D01*
X121225Y89336D01*
Y118088D02*
X120913Y117776D01*
X120287Y117463D01*
X119350D01*
X118725Y117776D01*
X118413Y118088D01*
X118100Y118713D01*
Y119963D01*
X118413Y120588D01*
X118725Y120901D01*
X119350Y121213D01*
X120287D01*
X120913Y120901D01*
X121225Y120588D01*
X119970Y144337D02*
Y148087D01*
X121845D01*
X122470Y147775D01*
X122783Y147462D01*
X123095Y146837D01*
Y145587D01*
X122783Y144962D01*
X122470Y144650D01*
X121845Y144337D01*
X119970D01*
Y154337D02*
Y158087D01*
X121845D01*
X122470Y157775D01*
X122783Y157462D01*
X123095Y156837D01*
Y155587D01*
X122783Y154962D01*
X122470Y154650D01*
X121845Y154337D01*
X119970D01*
Y164337D02*
Y168087D01*
X121845D01*
X122470Y167775D01*
X122783Y167462D01*
X123095Y166837D01*
Y165587D01*
X122783Y164962D01*
X122470Y164650D01*
X121845Y164337D01*
X119970D01*
Y174337D02*
Y178087D01*
X121845D01*
X122470Y177775D01*
X122783Y177462D01*
X123095Y176837D01*
Y175587D01*
X122783Y174962D01*
X122470Y174650D01*
X121845Y174337D01*
X119970D01*
X122787Y23712D02*
X123413Y23400D01*
X123725Y22775D01*
X123413Y22150D01*
X122787Y21837D01*
X120600D01*
Y25587D01*
X122787D01*
X123413Y25275D01*
X123725Y24650D01*
X123413Y24025D01*
X122787Y23712D01*
X120600D01*
X122787Y33712D02*
X123413Y33400D01*
X123725Y32775D01*
X123413Y32150D01*
X122787Y31837D01*
X120600D01*
Y35587D01*
X122787D01*
X123413Y35275D01*
X123725Y34650D01*
X123413Y34025D01*
X122787Y33712D01*
X120600D01*
X122366Y91837D02*
X123928Y95587D01*
X125491Y91837D01*
X122991Y93400D02*
X124866D01*
X131225Y86836D02*
X130913Y86524D01*
X130287Y86211D01*
X129350D01*
X128725Y86524D01*
X128413Y86836D01*
X128100Y87461D01*
Y88711D01*
X128413Y89336D01*
X128725Y89649D01*
X129350Y89961D01*
X130287D01*
X130913Y89649D01*
X131225Y89336D01*
Y118088D02*
X130913Y117776D01*
X130287Y117463D01*
X129350D01*
X128725Y117776D01*
X128413Y118088D01*
X128100Y118713D01*
Y119963D01*
X128413Y120588D01*
X128725Y120901D01*
X129350Y121213D01*
X130287D01*
X130913Y120901D01*
X131225Y120588D01*
X132787Y23712D02*
X133413Y23400D01*
X133725Y22775D01*
X133413Y22150D01*
X132787Y21837D01*
X130600D01*
Y25587D01*
X132787D01*
X133413Y25275D01*
X133725Y24650D01*
X133413Y24025D01*
X132787Y23712D01*
X130600D01*
X132787Y33712D02*
X133413Y33400D01*
X133725Y32775D01*
X133413Y32150D01*
X132787Y31837D01*
X130600D01*
Y35587D01*
X132787D01*
X133413Y35275D01*
X133725Y34650D01*
X133413Y34025D01*
X132787Y33712D01*
X130600D01*
X135466Y40955D02*
X137029Y44705D01*
X138591Y40955D01*
X136091Y42518D02*
X137966D01*
X141225Y86836D02*
X140913Y86524D01*
X140287Y86211D01*
X139350D01*
X138725Y86524D01*
X138413Y86836D01*
X138100Y87461D01*
Y88711D01*
X138413Y89336D01*
X138725Y89649D01*
X139350Y89961D01*
X140287D01*
X140913Y89649D01*
X141225Y89336D01*
Y118088D02*
X140913Y117776D01*
X140287Y117463D01*
X139350D01*
X138725Y117776D01*
X138413Y118088D01*
X138100Y118713D01*
Y119963D01*
X138413Y120588D01*
X138725Y120901D01*
X139350Y121213D01*
X140287D01*
X140913Y120901D01*
X141225Y120588D01*
X142787Y23712D02*
X143413Y23400D01*
X143725Y22775D01*
X143413Y22150D01*
X142787Y21837D01*
X140600D01*
Y25587D01*
X142787D01*
X143413Y25275D01*
X143725Y24650D01*
X143413Y24025D01*
X142787Y23712D01*
X140600D01*
X142787Y33712D02*
X143413Y33400D01*
X143725Y32775D01*
X143413Y32150D01*
X142787Y31837D01*
X140600D01*
Y35587D01*
X142787D01*
X143413Y35275D01*
X143725Y34650D01*
X143413Y34025D01*
X142787Y33712D01*
X140600D01*
X141962Y140353D02*
X143525Y144103D01*
X145087Y140353D01*
X142587Y141915D02*
X144462D01*
X145946Y154337D02*
X147509Y158087D01*
X149072Y154337D01*
X146572Y155900D02*
X148446D01*
X145946Y191837D02*
X147509Y195587D01*
X149072Y191837D01*
X146572Y193400D02*
X148446D01*
X151225Y86836D02*
X150913Y86524D01*
X150287Y86211D01*
X149350D01*
X148725Y86524D01*
X148413Y86836D01*
X148100Y87461D01*
Y88711D01*
X148413Y89336D01*
X148725Y89649D01*
X149350Y89961D01*
X150287D01*
X150913Y89649D01*
X151225Y89336D01*
Y118088D02*
X150913Y117776D01*
X150287Y117463D01*
X149350D01*
X148725Y117776D01*
X148413Y118088D01*
X148100Y118713D01*
Y119963D01*
X148413Y120588D01*
X148725Y120901D01*
X149350Y121213D01*
X150287D01*
X150913Y120901D01*
X151225Y120588D01*
X152787Y23712D02*
X153413Y23400D01*
X153725Y22775D01*
X153413Y22150D01*
X152787Y21837D01*
X150600D01*
Y25587D01*
X152787D01*
X153413Y25275D01*
X153725Y24650D01*
X153413Y24025D01*
X152787Y23712D01*
X150600D01*
X152787Y33712D02*
X153413Y33400D01*
X153725Y32775D01*
X153413Y32150D01*
X152787Y31837D01*
X150600D01*
Y35587D01*
X152787D01*
X153413Y35275D01*
X153725Y34650D01*
X153413Y34025D01*
X152787Y33712D01*
X150600D01*
X151230Y74993D02*
X152793Y78743D01*
X154355Y74993D01*
X151855Y76555D02*
X153730D01*
X151230Y144337D02*
Y148087D01*
X153105D01*
X153730Y147775D01*
X154043Y147462D01*
X154355Y146837D01*
Y145587D01*
X154043Y144962D01*
X153730Y144650D01*
X153105Y144337D01*
X151230D01*
Y154337D02*
Y158087D01*
X153105D01*
X153730Y157775D01*
X154043Y157462D01*
X154355Y156837D01*
Y155587D01*
X154043Y154962D01*
X153730Y154650D01*
X153105Y154337D01*
X151230D01*
Y164337D02*
Y168087D01*
X153105D01*
X153730Y167775D01*
X154043Y167462D01*
X154355Y166837D01*
Y165587D01*
X154043Y164962D01*
X153730Y164650D01*
X153105Y164337D01*
X151230D01*
Y174337D02*
Y178087D01*
X153105D01*
X153730Y177775D01*
X154043Y177462D01*
X154355Y176837D01*
Y175587D01*
X154043Y174962D01*
X153730Y174650D01*
X153105Y174337D01*
X151230D01*
Y179620D02*
X152793Y183370D01*
X154355Y179620D01*
X151855Y181183D02*
X153730D01*
X158100Y78977D02*
X159663Y82727D01*
X161225Y78977D01*
X158725Y80539D02*
X160600D01*
X161225Y86836D02*
X160913Y86524D01*
X160287Y86211D01*
X159350D01*
X158725Y86524D01*
X158413Y86836D01*
X158100Y87461D01*
Y88711D01*
X158413Y89336D01*
X158725Y89649D01*
X159350Y89961D01*
X160287D01*
X160913Y89649D01*
X161225Y89336D01*
Y118088D02*
X160913Y117776D01*
X160287Y117463D01*
X159350D01*
X158725Y117776D01*
X158413Y118088D01*
X158100Y118713D01*
Y119963D01*
X158413Y120588D01*
X158725Y120901D01*
X159350Y121213D01*
X160287D01*
X160913Y120901D01*
X161225Y120588D01*
X158100Y134337D02*
X159663Y138087D01*
X161225Y134337D01*
X158725Y135900D02*
X160600D01*
X162787Y23712D02*
X163413Y23400D01*
X163725Y22775D01*
X163413Y22150D01*
X162787Y21837D01*
X160600D01*
Y25587D01*
X162787D01*
X163413Y25275D01*
X163725Y24650D01*
X163413Y24025D01*
X162787Y23712D01*
X160600D01*
X162787Y33712D02*
X163413Y33400D01*
X163725Y32775D01*
X163413Y32150D01*
X162787Y31837D01*
X160600D01*
Y35587D01*
X162787D01*
X163413Y35275D01*
X163725Y34650D01*
X163413Y34025D01*
X162787Y33712D01*
X160600D01*
X165466Y40955D02*
X167029Y44705D01*
X168591Y40955D01*
X166091Y42518D02*
X167966D01*
X171225Y86836D02*
X170913Y86524D01*
X170287Y86211D01*
X169350D01*
X168725Y86524D01*
X168413Y86836D01*
X168100Y87461D01*
Y88711D01*
X168413Y89336D01*
X168725Y89649D01*
X169350Y89961D01*
X170287D01*
X170913Y89649D01*
X171225Y89336D01*
Y118088D02*
X170913Y117776D01*
X170287Y117463D01*
X169350D01*
X168725Y117776D01*
X168413Y118088D01*
X168100Y118713D01*
Y119963D01*
X168413Y120588D01*
X168725Y120901D01*
X169350Y121213D01*
X170287D01*
X170913Y120901D01*
X171225Y120588D01*
X168100Y144337D02*
X169663Y148087D01*
X171225Y144337D01*
X168725Y145900D02*
X170600D01*
X172787Y23712D02*
X173413Y23400D01*
X173725Y22775D01*
X173413Y22150D01*
X172787Y21837D01*
X170600D01*
Y25587D01*
X172787D01*
X173413Y25275D01*
X173725Y24650D01*
X173413Y24025D01*
X172787Y23712D01*
X170600D01*
X172787Y33712D02*
X173413Y33400D01*
X173725Y32775D01*
X173413Y32150D01*
X172787Y31837D01*
X170600D01*
Y35587D01*
X172787D01*
X173413Y35275D01*
X173725Y34650D01*
X173413Y34025D01*
X172787Y33712D01*
X170600D01*
X173381Y86211D02*
X174944Y89961D01*
X176507Y86211D01*
X174007Y87774D02*
X175881D01*
X173381Y186837D02*
X174944Y190587D01*
X176507Y186837D01*
X174007Y188400D02*
X175881D01*
X182787Y23712D02*
X183413Y23400D01*
X183725Y22775D01*
X183413Y22150D01*
X182787Y21837D01*
X180600D01*
Y25587D01*
X182787D01*
X183413Y25275D01*
X183725Y24650D01*
X183413Y24025D01*
X182787Y23712D01*
X180600D01*
X182787Y33712D02*
X183413Y33400D01*
X183725Y32775D01*
X183413Y32150D01*
X182787Y31837D01*
X180600D01*
Y35587D01*
X182787D01*
X183413Y35275D01*
X183725Y34650D01*
X183413Y34025D01*
X182787Y33712D01*
X180600D01*
Y161837D02*
Y165587D01*
X183725D01*
X183100Y163712D02*
X180600D01*
Y161837D02*
X183725D01*
X180600Y191837D02*
Y195587D01*
X183725D01*
X183100Y193712D02*
X180600D01*
Y191837D02*
X183725D01*
X192787Y23712D02*
X193413Y23400D01*
X193725Y22775D01*
X193413Y22150D01*
X192787Y21837D01*
X190600D01*
Y25587D01*
X192787D01*
X193413Y25275D01*
X193725Y24650D01*
X193413Y24025D01*
X192787Y23712D01*
X190600D01*
X192787Y33712D02*
X193413Y33400D01*
X193725Y32775D01*
X193413Y32150D01*
X192787Y31837D01*
X190600D01*
Y35587D01*
X192787D01*
X193413Y35275D01*
X193725Y34650D01*
X193413Y34025D01*
X192787Y33712D01*
X190600D01*
X202787Y23712D02*
X203413Y23400D01*
X203725Y22775D01*
X203413Y22150D01*
X202787Y21837D01*
X200600D01*
Y25587D01*
X202787D01*
X203413Y25275D01*
X203725Y24650D01*
X203413Y24025D01*
X202787Y23712D01*
X200600D01*
X202787Y33712D02*
X203413Y33400D01*
X203725Y32775D01*
X203413Y32150D01*
X202787Y31837D01*
X200600D01*
Y35587D01*
X202787D01*
X203413Y35275D01*
X203725Y34650D01*
X203413Y34025D01*
X202787Y33712D01*
X200600D01*
X203100Y61837D02*
Y65587D01*
X206225D01*
X205600Y63712D02*
X203100D01*
Y91837D02*
Y95587D01*
X206225D01*
X205600Y93712D02*
X203100D01*
X212787Y23712D02*
X213413Y23400D01*
X213725Y22775D01*
X213413Y22150D01*
X212787Y21837D01*
X210600D01*
Y25587D01*
X212787D01*
X213413Y25275D01*
X213725Y24650D01*
X213413Y24025D01*
X212787Y23712D01*
X210600D01*
X212787Y33712D02*
X213413Y33400D01*
X213725Y32775D01*
X213413Y32150D01*
X212787Y31837D01*
X210600D01*
Y35587D01*
X212787D01*
X213413Y35275D01*
X213725Y34650D01*
X213413Y34025D01*
X212787Y33712D01*
X210600D01*
Y40955D02*
X212163Y44705D01*
X213725Y40955D01*
X211225Y42518D02*
X213100D01*
X210600Y86211D02*
X212163Y89961D01*
X213725Y86211D01*
X211225Y87774D02*
X213100D01*
X210600Y114337D02*
Y118087D01*
X213725D01*
X213100Y116212D02*
X210600D01*
Y114337D02*
X213725D01*
X210600Y140069D02*
X212163Y143819D01*
X213725Y140069D01*
X211225Y141632D02*
X213100D01*
X210600Y154337D02*
Y158087D01*
X213725D01*
X213100Y156212D02*
X210600D01*
Y154337D02*
X213725D01*
X215734Y16703D02*
X217296Y20453D01*
X218859Y16703D01*
X216359Y18266D02*
X218234D01*
X216750Y166821D02*
X218312Y170571D01*
X219875Y166821D01*
X217375Y168384D02*
X219250D01*
D02*
D74*
X15600Y128400D03*
Y173683D03*
X18100Y18400D03*
X19600Y155900D03*
Y180900D03*
X23100Y83400D03*
Y116807D03*
X25600Y155900D03*
X28100Y188400D03*
X48116Y128400D03*
X53100Y69055D03*
Y83400D03*
D03*
X55600Y128400D03*
X58100Y18400D03*
Y188400D03*
X60600Y53400D03*
Y148400D03*
X65600Y73039D03*
Y155900D03*
X69850Y9750D03*
Y80274D03*
X73834Y69055D03*
X78100Y80274D03*
Y111526D03*
Y135915D03*
X80600Y15900D03*
Y25900D03*
X85600Y140900D03*
Y180900D03*
X88100Y80274D03*
Y111526D03*
X90584Y154132D03*
X90600Y15900D03*
Y25900D03*
X95466Y58384D03*
X96616Y9750D03*
X98100Y80274D03*
Y111526D03*
Y116807D03*
Y188400D03*
X100600Y15900D03*
Y25900D03*
Y35018D03*
Y53400D03*
X102366Y158400D03*
X108100Y80274D03*
Y111526D03*
X109970Y138400D03*
Y148400D03*
Y158400D03*
Y168400D03*
X110600Y15900D03*
Y25900D03*
X112366Y85900D03*
X118100Y80274D03*
Y111526D03*
X120600Y15900D03*
Y25900D03*
X125466Y35018D03*
X128100Y80274D03*
Y111526D03*
X130600Y15900D03*
Y25900D03*
X131962Y134415D03*
X135946Y148400D03*
Y185900D03*
X138100Y80274D03*
Y111526D03*
X140600Y15900D03*
Y25900D03*
X141230Y69055D03*
Y138400D03*
Y148400D03*
Y158400D03*
Y168400D03*
Y173683D03*
X148100Y73039D03*
Y80274D03*
Y111526D03*
Y128400D03*
X150600Y15900D03*
Y25900D03*
X155466Y35018D03*
X158100Y80274D03*
Y111526D03*
Y138400D03*
X160600Y15900D03*
Y25900D03*
X163381Y80274D03*
Y180900D03*
X170600Y15900D03*
Y25900D03*
Y155900D03*
Y185900D03*
X180600Y15900D03*
Y25900D03*
X190600Y15900D03*
Y25900D03*
X193100Y55900D03*
Y85900D03*
X200600Y15900D03*
Y25900D03*
Y35018D03*
Y80274D03*
Y108400D03*
Y134132D03*
Y148400D03*
X205734Y10766D03*
X206750Y160884D03*
X0Y0D02*
M02*
