%TF.GenerationSoftware,KiCad,Pcbnew,8.0.0*%
%TF.CreationDate,2024-02-26T14:23:39+00:00*%
%TF.ProjectId,piHat,70694861-742e-46b6-9963-61645f706362,rev?*%
%TF.SameCoordinates,Original*%
%TF.FileFunction,Legend,Top*%
%TF.FilePolarity,Positive*%
%FSLAX46Y46*%
G04 Gerber Fmt 4.6, Leading zero omitted, Abs format (unit mm)*
G04 Created by KiCad (PCBNEW 8.0.0) date 2024-02-26 14:23:39*
%MOMM*%
%LPD*%
G01*
G04 APERTURE LIST*
%ADD10C,0.150000*%
%ADD11C,0.120000*%
G04 APERTURE END LIST*
D10*
X127324819Y-89751904D02*
X128134342Y-89751904D01*
X128134342Y-89751904D02*
X128229580Y-89704285D01*
X128229580Y-89704285D02*
X128277200Y-89656666D01*
X128277200Y-89656666D02*
X128324819Y-89561428D01*
X128324819Y-89561428D02*
X128324819Y-89370952D01*
X128324819Y-89370952D02*
X128277200Y-89275714D01*
X128277200Y-89275714D02*
X128229580Y-89228095D01*
X128229580Y-89228095D02*
X128134342Y-89180476D01*
X128134342Y-89180476D02*
X127324819Y-89180476D01*
X127420057Y-88751904D02*
X127372438Y-88704285D01*
X127372438Y-88704285D02*
X127324819Y-88609047D01*
X127324819Y-88609047D02*
X127324819Y-88370952D01*
X127324819Y-88370952D02*
X127372438Y-88275714D01*
X127372438Y-88275714D02*
X127420057Y-88228095D01*
X127420057Y-88228095D02*
X127515295Y-88180476D01*
X127515295Y-88180476D02*
X127610533Y-88180476D01*
X127610533Y-88180476D02*
X127753390Y-88228095D01*
X127753390Y-88228095D02*
X128324819Y-88799523D01*
X128324819Y-88799523D02*
X128324819Y-88180476D01*
X96380952Y-100970057D02*
X96428571Y-100922438D01*
X96428571Y-100922438D02*
X96523809Y-100874819D01*
X96523809Y-100874819D02*
X96761904Y-100874819D01*
X96761904Y-100874819D02*
X96857142Y-100922438D01*
X96857142Y-100922438D02*
X96904761Y-100970057D01*
X96904761Y-100970057D02*
X96952380Y-101065295D01*
X96952380Y-101065295D02*
X96952380Y-101160533D01*
X96952380Y-101160533D02*
X96904761Y-101303390D01*
X96904761Y-101303390D02*
X96333333Y-101874819D01*
X96333333Y-101874819D02*
X96952380Y-101874819D01*
X97333333Y-100970057D02*
X97380952Y-100922438D01*
X97380952Y-100922438D02*
X97476190Y-100874819D01*
X97476190Y-100874819D02*
X97714285Y-100874819D01*
X97714285Y-100874819D02*
X97809523Y-100922438D01*
X97809523Y-100922438D02*
X97857142Y-100970057D01*
X97857142Y-100970057D02*
X97904761Y-101065295D01*
X97904761Y-101065295D02*
X97904761Y-101160533D01*
X97904761Y-101160533D02*
X97857142Y-101303390D01*
X97857142Y-101303390D02*
X97285714Y-101874819D01*
X97285714Y-101874819D02*
X97904761Y-101874819D01*
X98333333Y-101208152D02*
X98333333Y-102208152D01*
X98333333Y-101255771D02*
X98428571Y-101208152D01*
X98428571Y-101208152D02*
X98619047Y-101208152D01*
X98619047Y-101208152D02*
X98714285Y-101255771D01*
X98714285Y-101255771D02*
X98761904Y-101303390D01*
X98761904Y-101303390D02*
X98809523Y-101398628D01*
X98809523Y-101398628D02*
X98809523Y-101684342D01*
X98809523Y-101684342D02*
X98761904Y-101779580D01*
X98761904Y-101779580D02*
X98714285Y-101827200D01*
X98714285Y-101827200D02*
X98619047Y-101874819D01*
X98619047Y-101874819D02*
X98428571Y-101874819D01*
X98428571Y-101874819D02*
X98333333Y-101827200D01*
X99571428Y-101351009D02*
X99238095Y-101351009D01*
X99238095Y-101874819D02*
X99238095Y-100874819D01*
X99238095Y-100874819D02*
X99714285Y-100874819D01*
X100619047Y-101874819D02*
X100047619Y-101874819D01*
X100333333Y-101874819D02*
X100333333Y-100874819D01*
X100333333Y-100874819D02*
X100238095Y-101017676D01*
X100238095Y-101017676D02*
X100142857Y-101112914D01*
X100142857Y-101112914D02*
X100047619Y-101160533D01*
X119130057Y-103738094D02*
X119082438Y-103690475D01*
X119082438Y-103690475D02*
X119034819Y-103595237D01*
X119034819Y-103595237D02*
X119034819Y-103357142D01*
X119034819Y-103357142D02*
X119082438Y-103261904D01*
X119082438Y-103261904D02*
X119130057Y-103214285D01*
X119130057Y-103214285D02*
X119225295Y-103166666D01*
X119225295Y-103166666D02*
X119320533Y-103166666D01*
X119320533Y-103166666D02*
X119463390Y-103214285D01*
X119463390Y-103214285D02*
X120034819Y-103785713D01*
X120034819Y-103785713D02*
X120034819Y-103166666D01*
X119034819Y-102547618D02*
X119034819Y-102452380D01*
X119034819Y-102452380D02*
X119082438Y-102357142D01*
X119082438Y-102357142D02*
X119130057Y-102309523D01*
X119130057Y-102309523D02*
X119225295Y-102261904D01*
X119225295Y-102261904D02*
X119415771Y-102214285D01*
X119415771Y-102214285D02*
X119653866Y-102214285D01*
X119653866Y-102214285D02*
X119844342Y-102261904D01*
X119844342Y-102261904D02*
X119939580Y-102309523D01*
X119939580Y-102309523D02*
X119987200Y-102357142D01*
X119987200Y-102357142D02*
X120034819Y-102452380D01*
X120034819Y-102452380D02*
X120034819Y-102547618D01*
X120034819Y-102547618D02*
X119987200Y-102642856D01*
X119987200Y-102642856D02*
X119939580Y-102690475D01*
X119939580Y-102690475D02*
X119844342Y-102738094D01*
X119844342Y-102738094D02*
X119653866Y-102785713D01*
X119653866Y-102785713D02*
X119415771Y-102785713D01*
X119415771Y-102785713D02*
X119225295Y-102738094D01*
X119225295Y-102738094D02*
X119130057Y-102690475D01*
X119130057Y-102690475D02*
X119082438Y-102642856D01*
X119082438Y-102642856D02*
X119034819Y-102547618D01*
X120034819Y-101785713D02*
X119034819Y-101785713D01*
X120034819Y-101214285D02*
X119463390Y-101642856D01*
X119034819Y-101214285D02*
X119606247Y-101785713D01*
X120034819Y-100261904D02*
X120034819Y-100833332D01*
X120034819Y-100547618D02*
X119034819Y-100547618D01*
X119034819Y-100547618D02*
X119177676Y-100642856D01*
X119177676Y-100642856D02*
X119272914Y-100738094D01*
X119272914Y-100738094D02*
X119320533Y-100833332D01*
X90924819Y-89571904D02*
X91734342Y-89571904D01*
X91734342Y-89571904D02*
X91829580Y-89524285D01*
X91829580Y-89524285D02*
X91877200Y-89476666D01*
X91877200Y-89476666D02*
X91924819Y-89381428D01*
X91924819Y-89381428D02*
X91924819Y-89190952D01*
X91924819Y-89190952D02*
X91877200Y-89095714D01*
X91877200Y-89095714D02*
X91829580Y-89048095D01*
X91829580Y-89048095D02*
X91734342Y-89000476D01*
X91734342Y-89000476D02*
X90924819Y-89000476D01*
X91924819Y-88000476D02*
X91924819Y-88571904D01*
X91924819Y-88286190D02*
X90924819Y-88286190D01*
X90924819Y-88286190D02*
X91067676Y-88381428D01*
X91067676Y-88381428D02*
X91162914Y-88476666D01*
X91162914Y-88476666D02*
X91210533Y-88571904D01*
X131243558Y-107609579D02*
X131195939Y-107657199D01*
X131195939Y-107657199D02*
X131053082Y-107704818D01*
X131053082Y-107704818D02*
X130957844Y-107704818D01*
X130957844Y-107704818D02*
X130814987Y-107657199D01*
X130814987Y-107657199D02*
X130719749Y-107561960D01*
X130719749Y-107561960D02*
X130672130Y-107466722D01*
X130672130Y-107466722D02*
X130624511Y-107276246D01*
X130624511Y-107276246D02*
X130624511Y-107133389D01*
X130624511Y-107133389D02*
X130672130Y-106942913D01*
X130672130Y-106942913D02*
X130719749Y-106847675D01*
X130719749Y-106847675D02*
X130814987Y-106752437D01*
X130814987Y-106752437D02*
X130957844Y-106704818D01*
X130957844Y-106704818D02*
X131053082Y-106704818D01*
X131053082Y-106704818D02*
X131195939Y-106752437D01*
X131195939Y-106752437D02*
X131243558Y-106800056D01*
X131576892Y-106704818D02*
X132195939Y-106704818D01*
X132195939Y-106704818D02*
X131862606Y-107085770D01*
X131862606Y-107085770D02*
X132005463Y-107085770D01*
X132005463Y-107085770D02*
X132100701Y-107133389D01*
X132100701Y-107133389D02*
X132148320Y-107181008D01*
X132148320Y-107181008D02*
X132195939Y-107276246D01*
X132195939Y-107276246D02*
X132195939Y-107514341D01*
X132195939Y-107514341D02*
X132148320Y-107609579D01*
X132148320Y-107609579D02*
X132100701Y-107657199D01*
X132100701Y-107657199D02*
X132005463Y-107704818D01*
X132005463Y-107704818D02*
X131719749Y-107704818D01*
X131719749Y-107704818D02*
X131624511Y-107657199D01*
X131624511Y-107657199D02*
X131576892Y-107609579D01*
X109261904Y-75534819D02*
X108928571Y-75058628D01*
X108690476Y-75534819D02*
X108690476Y-74534819D01*
X108690476Y-74534819D02*
X109071428Y-74534819D01*
X109071428Y-74534819D02*
X109166666Y-74582438D01*
X109166666Y-74582438D02*
X109214285Y-74630057D01*
X109214285Y-74630057D02*
X109261904Y-74725295D01*
X109261904Y-74725295D02*
X109261904Y-74868152D01*
X109261904Y-74868152D02*
X109214285Y-74963390D01*
X109214285Y-74963390D02*
X109166666Y-75011009D01*
X109166666Y-75011009D02*
X109071428Y-75058628D01*
X109071428Y-75058628D02*
X108690476Y-75058628D01*
X109642857Y-74630057D02*
X109690476Y-74582438D01*
X109690476Y-74582438D02*
X109785714Y-74534819D01*
X109785714Y-74534819D02*
X110023809Y-74534819D01*
X110023809Y-74534819D02*
X110119047Y-74582438D01*
X110119047Y-74582438D02*
X110166666Y-74630057D01*
X110166666Y-74630057D02*
X110214285Y-74725295D01*
X110214285Y-74725295D02*
X110214285Y-74820533D01*
X110214285Y-74820533D02*
X110166666Y-74963390D01*
X110166666Y-74963390D02*
X109595238Y-75534819D01*
X109595238Y-75534819D02*
X110214285Y-75534819D01*
X110642857Y-75153866D02*
X111404762Y-75153866D01*
X112309523Y-74868152D02*
X112309523Y-75534819D01*
X112071428Y-74487200D02*
X111833333Y-75201485D01*
X111833333Y-75201485D02*
X112452380Y-75201485D01*
X112833333Y-75534819D02*
X112833333Y-74534819D01*
X113404761Y-75534819D02*
X112976190Y-74963390D01*
X113404761Y-74534819D02*
X112833333Y-75106247D01*
X113738095Y-74534819D02*
X114404761Y-74534819D01*
X114404761Y-74534819D02*
X113976190Y-75534819D01*
X95261904Y-75534819D02*
X94928571Y-75058628D01*
X94690476Y-75534819D02*
X94690476Y-74534819D01*
X94690476Y-74534819D02*
X95071428Y-74534819D01*
X95071428Y-74534819D02*
X95166666Y-74582438D01*
X95166666Y-74582438D02*
X95214285Y-74630057D01*
X95214285Y-74630057D02*
X95261904Y-74725295D01*
X95261904Y-74725295D02*
X95261904Y-74868152D01*
X95261904Y-74868152D02*
X95214285Y-74963390D01*
X95214285Y-74963390D02*
X95166666Y-75011009D01*
X95166666Y-75011009D02*
X95071428Y-75058628D01*
X95071428Y-75058628D02*
X94690476Y-75058628D01*
X96214285Y-75534819D02*
X95642857Y-75534819D01*
X95928571Y-75534819D02*
X95928571Y-74534819D01*
X95928571Y-74534819D02*
X95833333Y-74677676D01*
X95833333Y-74677676D02*
X95738095Y-74772914D01*
X95738095Y-74772914D02*
X95642857Y-74820533D01*
X96642857Y-75153866D02*
X97404762Y-75153866D01*
X98309523Y-74868152D02*
X98309523Y-75534819D01*
X98071428Y-74487200D02*
X97833333Y-75201485D01*
X97833333Y-75201485D02*
X98452380Y-75201485D01*
X98833333Y-75534819D02*
X98833333Y-74534819D01*
X99404761Y-75534819D02*
X98976190Y-74963390D01*
X99404761Y-74534819D02*
X98833333Y-75106247D01*
X99738095Y-74534819D02*
X100404761Y-74534819D01*
X100404761Y-74534819D02*
X99976190Y-75534819D01*
X123874819Y-90166666D02*
X123874819Y-90738094D01*
X123874819Y-90452380D02*
X122874819Y-90452380D01*
X122874819Y-90452380D02*
X123017676Y-90547618D01*
X123017676Y-90547618D02*
X123112914Y-90642856D01*
X123112914Y-90642856D02*
X123160533Y-90738094D01*
X122874819Y-89547618D02*
X122874819Y-89452380D01*
X122874819Y-89452380D02*
X122922438Y-89357142D01*
X122922438Y-89357142D02*
X122970057Y-89309523D01*
X122970057Y-89309523D02*
X123065295Y-89261904D01*
X123065295Y-89261904D02*
X123255771Y-89214285D01*
X123255771Y-89214285D02*
X123493866Y-89214285D01*
X123493866Y-89214285D02*
X123684342Y-89261904D01*
X123684342Y-89261904D02*
X123779580Y-89309523D01*
X123779580Y-89309523D02*
X123827200Y-89357142D01*
X123827200Y-89357142D02*
X123874819Y-89452380D01*
X123874819Y-89452380D02*
X123874819Y-89547618D01*
X123874819Y-89547618D02*
X123827200Y-89642856D01*
X123827200Y-89642856D02*
X123779580Y-89690475D01*
X123779580Y-89690475D02*
X123684342Y-89738094D01*
X123684342Y-89738094D02*
X123493866Y-89785713D01*
X123493866Y-89785713D02*
X123255771Y-89785713D01*
X123255771Y-89785713D02*
X123065295Y-89738094D01*
X123065295Y-89738094D02*
X122970057Y-89690475D01*
X122970057Y-89690475D02*
X122922438Y-89642856D01*
X122922438Y-89642856D02*
X122874819Y-89547618D01*
X123874819Y-88785713D02*
X122874819Y-88785713D01*
X123874819Y-88214285D02*
X123303390Y-88642856D01*
X122874819Y-88214285D02*
X123446247Y-88785713D01*
X123874819Y-87261904D02*
X123874819Y-87833332D01*
X123874819Y-87547618D02*
X122874819Y-87547618D01*
X122874819Y-87547618D02*
X123017676Y-87642856D01*
X123017676Y-87642856D02*
X123112914Y-87738094D01*
X123112914Y-87738094D02*
X123160533Y-87833332D01*
X144684819Y-115053333D02*
X145399104Y-115053333D01*
X145399104Y-115053333D02*
X145541961Y-115100952D01*
X145541961Y-115100952D02*
X145637200Y-115196190D01*
X145637200Y-115196190D02*
X145684819Y-115339047D01*
X145684819Y-115339047D02*
X145684819Y-115434285D01*
X144780057Y-114624761D02*
X144732438Y-114577142D01*
X144732438Y-114577142D02*
X144684819Y-114481904D01*
X144684819Y-114481904D02*
X144684819Y-114243809D01*
X144684819Y-114243809D02*
X144732438Y-114148571D01*
X144732438Y-114148571D02*
X144780057Y-114100952D01*
X144780057Y-114100952D02*
X144875295Y-114053333D01*
X144875295Y-114053333D02*
X144970533Y-114053333D01*
X144970533Y-114053333D02*
X145113390Y-114100952D01*
X145113390Y-114100952D02*
X145684819Y-114672380D01*
X145684819Y-114672380D02*
X145684819Y-114053333D01*
X107809523Y-96754819D02*
X107238095Y-96754819D01*
X107523809Y-96754819D02*
X107523809Y-95754819D01*
X107523809Y-95754819D02*
X107428571Y-95897676D01*
X107428571Y-95897676D02*
X107333333Y-95992914D01*
X107333333Y-95992914D02*
X107238095Y-96040533D01*
X108666666Y-95754819D02*
X108476190Y-95754819D01*
X108476190Y-95754819D02*
X108380952Y-95802438D01*
X108380952Y-95802438D02*
X108333333Y-95850057D01*
X108333333Y-95850057D02*
X108238095Y-95992914D01*
X108238095Y-95992914D02*
X108190476Y-96183390D01*
X108190476Y-96183390D02*
X108190476Y-96564342D01*
X108190476Y-96564342D02*
X108238095Y-96659580D01*
X108238095Y-96659580D02*
X108285714Y-96707200D01*
X108285714Y-96707200D02*
X108380952Y-96754819D01*
X108380952Y-96754819D02*
X108571428Y-96754819D01*
X108571428Y-96754819D02*
X108666666Y-96707200D01*
X108666666Y-96707200D02*
X108714285Y-96659580D01*
X108714285Y-96659580D02*
X108761904Y-96564342D01*
X108761904Y-96564342D02*
X108761904Y-96326247D01*
X108761904Y-96326247D02*
X108714285Y-96231009D01*
X108714285Y-96231009D02*
X108666666Y-96183390D01*
X108666666Y-96183390D02*
X108571428Y-96135771D01*
X108571428Y-96135771D02*
X108380952Y-96135771D01*
X108380952Y-96135771D02*
X108285714Y-96183390D01*
X108285714Y-96183390D02*
X108238095Y-96231009D01*
X108238095Y-96231009D02*
X108190476Y-96326247D01*
X109190476Y-96754819D02*
X109190476Y-96088152D01*
X109190476Y-96183390D02*
X109238095Y-96135771D01*
X109238095Y-96135771D02*
X109333333Y-96088152D01*
X109333333Y-96088152D02*
X109476190Y-96088152D01*
X109476190Y-96088152D02*
X109571428Y-96135771D01*
X109571428Y-96135771D02*
X109619047Y-96231009D01*
X109619047Y-96231009D02*
X109619047Y-96754819D01*
X109619047Y-96231009D02*
X109666666Y-96135771D01*
X109666666Y-96135771D02*
X109761904Y-96088152D01*
X109761904Y-96088152D02*
X109904761Y-96088152D01*
X109904761Y-96088152D02*
X110000000Y-96135771D01*
X110000000Y-96135771D02*
X110047619Y-96231009D01*
X110047619Y-96231009D02*
X110047619Y-96754819D01*
X110523809Y-96754819D02*
X110523809Y-95754819D01*
X110952380Y-96754819D02*
X110952380Y-96231009D01*
X110952380Y-96231009D02*
X110904761Y-96135771D01*
X110904761Y-96135771D02*
X110809523Y-96088152D01*
X110809523Y-96088152D02*
X110666666Y-96088152D01*
X110666666Y-96088152D02*
X110571428Y-96135771D01*
X110571428Y-96135771D02*
X110523809Y-96183390D01*
X111333333Y-96088152D02*
X111857142Y-96088152D01*
X111857142Y-96088152D02*
X111333333Y-96754819D01*
X111333333Y-96754819D02*
X111857142Y-96754819D01*
X112761904Y-96754819D02*
X112190476Y-96754819D01*
X112476190Y-96754819D02*
X112476190Y-95754819D01*
X112476190Y-95754819D02*
X112380952Y-95897676D01*
X112380952Y-95897676D02*
X112285714Y-95992914D01*
X112285714Y-95992914D02*
X112190476Y-96040533D01*
X123261904Y-75534819D02*
X122928571Y-75058628D01*
X122690476Y-75534819D02*
X122690476Y-74534819D01*
X122690476Y-74534819D02*
X123071428Y-74534819D01*
X123071428Y-74534819D02*
X123166666Y-74582438D01*
X123166666Y-74582438D02*
X123214285Y-74630057D01*
X123214285Y-74630057D02*
X123261904Y-74725295D01*
X123261904Y-74725295D02*
X123261904Y-74868152D01*
X123261904Y-74868152D02*
X123214285Y-74963390D01*
X123214285Y-74963390D02*
X123166666Y-75011009D01*
X123166666Y-75011009D02*
X123071428Y-75058628D01*
X123071428Y-75058628D02*
X122690476Y-75058628D01*
X123595238Y-74534819D02*
X124214285Y-74534819D01*
X124214285Y-74534819D02*
X123880952Y-74915771D01*
X123880952Y-74915771D02*
X124023809Y-74915771D01*
X124023809Y-74915771D02*
X124119047Y-74963390D01*
X124119047Y-74963390D02*
X124166666Y-75011009D01*
X124166666Y-75011009D02*
X124214285Y-75106247D01*
X124214285Y-75106247D02*
X124214285Y-75344342D01*
X124214285Y-75344342D02*
X124166666Y-75439580D01*
X124166666Y-75439580D02*
X124119047Y-75487200D01*
X124119047Y-75487200D02*
X124023809Y-75534819D01*
X124023809Y-75534819D02*
X123738095Y-75534819D01*
X123738095Y-75534819D02*
X123642857Y-75487200D01*
X123642857Y-75487200D02*
X123595238Y-75439580D01*
X124642857Y-75153866D02*
X125404762Y-75153866D01*
X126309523Y-74868152D02*
X126309523Y-75534819D01*
X126071428Y-74487200D02*
X125833333Y-75201485D01*
X125833333Y-75201485D02*
X126452380Y-75201485D01*
X126833333Y-75534819D02*
X126833333Y-74534819D01*
X127404761Y-75534819D02*
X126976190Y-74963390D01*
X127404761Y-74534819D02*
X126833333Y-75106247D01*
X127738095Y-74534819D02*
X128404761Y-74534819D01*
X128404761Y-74534819D02*
X127976190Y-75534819D01*
X134928571Y-79954819D02*
X134928571Y-78954819D01*
X134928571Y-79431009D02*
X135499999Y-79431009D01*
X135499999Y-79954819D02*
X135499999Y-78954819D01*
X136738095Y-79573866D02*
X137500000Y-79573866D01*
X139214285Y-79954819D02*
X138738095Y-79954819D01*
X138738095Y-79954819D02*
X138738095Y-78954819D01*
X139788446Y-107609579D02*
X139740827Y-107657199D01*
X139740827Y-107657199D02*
X139597970Y-107704818D01*
X139597970Y-107704818D02*
X139502732Y-107704818D01*
X139502732Y-107704818D02*
X139359875Y-107657199D01*
X139359875Y-107657199D02*
X139264637Y-107561960D01*
X139264637Y-107561960D02*
X139217018Y-107466722D01*
X139217018Y-107466722D02*
X139169399Y-107276246D01*
X139169399Y-107276246D02*
X139169399Y-107133389D01*
X139169399Y-107133389D02*
X139217018Y-106942913D01*
X139217018Y-106942913D02*
X139264637Y-106847675D01*
X139264637Y-106847675D02*
X139359875Y-106752437D01*
X139359875Y-106752437D02*
X139502732Y-106704818D01*
X139502732Y-106704818D02*
X139597970Y-106704818D01*
X139597970Y-106704818D02*
X139740827Y-106752437D01*
X139740827Y-106752437D02*
X139788446Y-106800056D01*
X140645589Y-107038151D02*
X140645589Y-107704818D01*
X140407494Y-106657199D02*
X140169399Y-107371484D01*
X140169399Y-107371484D02*
X140788446Y-107371484D01*
X96380952Y-107970057D02*
X96428571Y-107922438D01*
X96428571Y-107922438D02*
X96523809Y-107874819D01*
X96523809Y-107874819D02*
X96761904Y-107874819D01*
X96761904Y-107874819D02*
X96857142Y-107922438D01*
X96857142Y-107922438D02*
X96904761Y-107970057D01*
X96904761Y-107970057D02*
X96952380Y-108065295D01*
X96952380Y-108065295D02*
X96952380Y-108160533D01*
X96952380Y-108160533D02*
X96904761Y-108303390D01*
X96904761Y-108303390D02*
X96333333Y-108874819D01*
X96333333Y-108874819D02*
X96952380Y-108874819D01*
X97333333Y-107970057D02*
X97380952Y-107922438D01*
X97380952Y-107922438D02*
X97476190Y-107874819D01*
X97476190Y-107874819D02*
X97714285Y-107874819D01*
X97714285Y-107874819D02*
X97809523Y-107922438D01*
X97809523Y-107922438D02*
X97857142Y-107970057D01*
X97857142Y-107970057D02*
X97904761Y-108065295D01*
X97904761Y-108065295D02*
X97904761Y-108160533D01*
X97904761Y-108160533D02*
X97857142Y-108303390D01*
X97857142Y-108303390D02*
X97285714Y-108874819D01*
X97285714Y-108874819D02*
X97904761Y-108874819D01*
X98333333Y-108208152D02*
X98333333Y-109208152D01*
X98333333Y-108255771D02*
X98428571Y-108208152D01*
X98428571Y-108208152D02*
X98619047Y-108208152D01*
X98619047Y-108208152D02*
X98714285Y-108255771D01*
X98714285Y-108255771D02*
X98761904Y-108303390D01*
X98761904Y-108303390D02*
X98809523Y-108398628D01*
X98809523Y-108398628D02*
X98809523Y-108684342D01*
X98809523Y-108684342D02*
X98761904Y-108779580D01*
X98761904Y-108779580D02*
X98714285Y-108827200D01*
X98714285Y-108827200D02*
X98619047Y-108874819D01*
X98619047Y-108874819D02*
X98428571Y-108874819D01*
X98428571Y-108874819D02*
X98333333Y-108827200D01*
X99571428Y-108351009D02*
X99238095Y-108351009D01*
X99238095Y-108874819D02*
X99238095Y-107874819D01*
X99238095Y-107874819D02*
X99714285Y-107874819D01*
X100047619Y-107970057D02*
X100095238Y-107922438D01*
X100095238Y-107922438D02*
X100190476Y-107874819D01*
X100190476Y-107874819D02*
X100428571Y-107874819D01*
X100428571Y-107874819D02*
X100523809Y-107922438D01*
X100523809Y-107922438D02*
X100571428Y-107970057D01*
X100571428Y-107970057D02*
X100619047Y-108065295D01*
X100619047Y-108065295D02*
X100619047Y-108160533D01*
X100619047Y-108160533D02*
X100571428Y-108303390D01*
X100571428Y-108303390D02*
X100000000Y-108874819D01*
X100000000Y-108874819D02*
X100619047Y-108874819D01*
D11*
%TO.C,U2*%
X128870000Y-86340000D02*
X128870000Y-87990000D01*
X128870000Y-89990000D02*
X128870000Y-91640000D01*
X128870000Y-91640000D02*
X139150000Y-91640000D01*
X139150000Y-86340000D02*
X128870000Y-86340000D01*
X139150000Y-91640000D02*
X139150000Y-86340000D01*
X128870000Y-87990000D02*
G75*
G02*
X128870000Y-89990000I0J-1000000D01*
G01*
%TO.C,22pF1*%
X95790000Y-99000000D02*
X96480000Y-99000000D01*
X96480000Y-97580000D02*
X96480000Y-100420000D01*
X96480000Y-100420000D02*
X100520000Y-100420000D01*
X100520000Y-97580000D02*
X96480000Y-97580000D01*
X100520000Y-100420000D02*
X100520000Y-97580000D01*
X101210000Y-99000000D02*
X100520000Y-99000000D01*
%TO.C,20K1*%
X120580000Y-100080000D02*
X120580000Y-103920000D01*
X120580000Y-103920000D02*
X122420000Y-103920000D01*
X121500000Y-99130000D02*
X121500000Y-100080000D01*
X121500000Y-104870000D02*
X121500000Y-103920000D01*
X122420000Y-100080000D02*
X120580000Y-100080000D01*
X122420000Y-103920000D02*
X122420000Y-100080000D01*
%TO.C,U1*%
X92470000Y-86160000D02*
X92470000Y-87810000D01*
X92470000Y-89810000D02*
X92470000Y-91460000D01*
X92470000Y-91460000D02*
X115450000Y-91460000D01*
X115450000Y-86160000D02*
X92470000Y-86160000D01*
X115450000Y-91460000D02*
X115450000Y-86160000D01*
X92470000Y-87810000D02*
G75*
G02*
X92470000Y-89810000I0J-1000000D01*
G01*
%TO.C,C3*%
X128809225Y-103783999D02*
X128809225Y-103215999D01*
X128849225Y-104017999D02*
X128849225Y-102981999D01*
X128889225Y-104176999D02*
X128889225Y-102822999D01*
X128929225Y-104304999D02*
X128929225Y-102694999D01*
X128969225Y-104414999D02*
X128969225Y-102584999D01*
X129009225Y-104510999D02*
X129009225Y-102488999D01*
X129049225Y-104597999D02*
X129049225Y-102401999D01*
X129089225Y-104677999D02*
X129089225Y-102321999D01*
X129129225Y-104750999D02*
X129129225Y-102248999D01*
X129169225Y-104818999D02*
X129169225Y-102180999D01*
X129209225Y-104882999D02*
X129209225Y-102116999D01*
X129249225Y-104942999D02*
X129249225Y-102056999D01*
X129289225Y-104999999D02*
X129289225Y-101999999D01*
X129329225Y-105053999D02*
X129329225Y-101945999D01*
X129369225Y-105104999D02*
X129369225Y-101894999D01*
X129409225Y-102459999D02*
X129409225Y-101846999D01*
X129409225Y-105152999D02*
X129409225Y-104539999D01*
X129449225Y-102459999D02*
X129449225Y-101800999D01*
X129449225Y-105198999D02*
X129449225Y-104539999D01*
X129489225Y-102459999D02*
X129489225Y-101756999D01*
X129489225Y-105242999D02*
X129489225Y-104539999D01*
X129529225Y-102459999D02*
X129529225Y-101714999D01*
X129529225Y-105284999D02*
X129529225Y-104539999D01*
X129569225Y-102459999D02*
X129569225Y-101673999D01*
X129569225Y-105325999D02*
X129569225Y-104539999D01*
X129609225Y-102459999D02*
X129609225Y-101635999D01*
X129609225Y-105363999D02*
X129609225Y-104539999D01*
X129649225Y-102459999D02*
X129649225Y-101598999D01*
X129649225Y-105400999D02*
X129649225Y-104539999D01*
X129689225Y-102459999D02*
X129689225Y-101562999D01*
X129689225Y-105436999D02*
X129689225Y-104539999D01*
X129729225Y-102459999D02*
X129729225Y-101528999D01*
X129729225Y-105470999D02*
X129729225Y-104539999D01*
X129769225Y-102459999D02*
X129769225Y-101495999D01*
X129769225Y-105503999D02*
X129769225Y-104539999D01*
X129809225Y-102459999D02*
X129809225Y-101464999D01*
X129809225Y-105534999D02*
X129809225Y-104539999D01*
X129849225Y-102459999D02*
X129849225Y-101434999D01*
X129849225Y-105564999D02*
X129849225Y-104539999D01*
X129889225Y-102459999D02*
X129889225Y-101404999D01*
X129889225Y-105594999D02*
X129889225Y-104539999D01*
X129929225Y-102459999D02*
X129929225Y-101377999D01*
X129929225Y-105621999D02*
X129929225Y-104539999D01*
X129969225Y-102459999D02*
X129969225Y-101350999D01*
X129969225Y-105648999D02*
X129969225Y-104539999D01*
X130009225Y-102459999D02*
X130009225Y-101324999D01*
X130009225Y-105674999D02*
X130009225Y-104539999D01*
X130049225Y-102459999D02*
X130049225Y-101299999D01*
X130049225Y-105699999D02*
X130049225Y-104539999D01*
X130089225Y-102459999D02*
X130089225Y-101275999D01*
X130089225Y-105723999D02*
X130089225Y-104539999D01*
X130129225Y-102459999D02*
X130129225Y-101252999D01*
X130129225Y-105746999D02*
X130129225Y-104539999D01*
X130169225Y-102459999D02*
X130169225Y-101231999D01*
X130169225Y-105767999D02*
X130169225Y-104539999D01*
X130209225Y-102459999D02*
X130209225Y-101209999D01*
X130209225Y-105789999D02*
X130209225Y-104539999D01*
X130249225Y-102459999D02*
X130249225Y-101189999D01*
X130249225Y-105809999D02*
X130249225Y-104539999D01*
X130289225Y-102459999D02*
X130289225Y-101170999D01*
X130289225Y-105828999D02*
X130289225Y-104539999D01*
X130329225Y-102459999D02*
X130329225Y-101151999D01*
X130329225Y-105847999D02*
X130329225Y-104539999D01*
X130369225Y-102459999D02*
X130369225Y-101134999D01*
X130369225Y-105864999D02*
X130369225Y-104539999D01*
X130409225Y-102459999D02*
X130409225Y-101117999D01*
X130409225Y-105881999D02*
X130409225Y-104539999D01*
X130449225Y-102459999D02*
X130449225Y-101101999D01*
X130449225Y-105897999D02*
X130449225Y-104539999D01*
X130489225Y-102459999D02*
X130489225Y-101085999D01*
X130489225Y-105913999D02*
X130489225Y-104539999D01*
X130529225Y-102459999D02*
X130529225Y-101071999D01*
X130529225Y-105927999D02*
X130529225Y-104539999D01*
X130569225Y-102459999D02*
X130569225Y-101057999D01*
X130569225Y-105941999D02*
X130569225Y-104539999D01*
X130609225Y-102459999D02*
X130609225Y-101044999D01*
X130609225Y-105954999D02*
X130609225Y-104539999D01*
X130649225Y-102459999D02*
X130649225Y-101031999D01*
X130649225Y-105967999D02*
X130649225Y-104539999D01*
X130689225Y-102459999D02*
X130689225Y-101019999D01*
X130689225Y-105979999D02*
X130689225Y-104539999D01*
X130730225Y-102459999D02*
X130730225Y-101008999D01*
X130730225Y-105990999D02*
X130730225Y-104539999D01*
X130770225Y-102459999D02*
X130770225Y-100998999D01*
X130770225Y-106000999D02*
X130770225Y-104539999D01*
X130810225Y-102459999D02*
X130810225Y-100988999D01*
X130810225Y-106010999D02*
X130810225Y-104539999D01*
X130850225Y-102459999D02*
X130850225Y-100979999D01*
X130850225Y-106019999D02*
X130850225Y-104539999D01*
X130890225Y-102459999D02*
X130890225Y-100971999D01*
X130890225Y-106027999D02*
X130890225Y-104539999D01*
X130930225Y-102459999D02*
X130930225Y-100963999D01*
X130930225Y-106035999D02*
X130930225Y-104539999D01*
X130970225Y-102459999D02*
X130970225Y-100956999D01*
X130970225Y-106042999D02*
X130970225Y-104539999D01*
X131010225Y-102459999D02*
X131010225Y-100949999D01*
X131010225Y-106049999D02*
X131010225Y-104539999D01*
X131050225Y-102459999D02*
X131050225Y-100943999D01*
X131050225Y-106055999D02*
X131050225Y-104539999D01*
X131090225Y-102459999D02*
X131090225Y-100938999D01*
X131090225Y-106060999D02*
X131090225Y-104539999D01*
X131130225Y-102459999D02*
X131130225Y-100934999D01*
X131130225Y-106064999D02*
X131130225Y-104539999D01*
X131170225Y-102459999D02*
X131170225Y-100930999D01*
X131170225Y-106068999D02*
X131170225Y-104539999D01*
X131210225Y-102459999D02*
X131210225Y-100926999D01*
X131210225Y-106072999D02*
X131210225Y-104539999D01*
X131250225Y-102459999D02*
X131250225Y-100923999D01*
X131250225Y-106075999D02*
X131250225Y-104539999D01*
X131290225Y-102459999D02*
X131290225Y-100921999D01*
X131290225Y-106077999D02*
X131290225Y-104539999D01*
X131330225Y-102459999D02*
X131330225Y-100920999D01*
X131330225Y-106078999D02*
X131330225Y-104539999D01*
X131370225Y-102459999D02*
X131370225Y-100919999D01*
X131370225Y-106079999D02*
X131370225Y-104539999D01*
X131410225Y-102459999D02*
X131410225Y-100919999D01*
X131410225Y-106079999D02*
X131410225Y-104539999D01*
X133965000Y-105224999D02*
X133965000Y-104724999D01*
X134215000Y-104974999D02*
X133715000Y-104974999D01*
X134030225Y-103499999D02*
G75*
G02*
X128790225Y-103499999I-2620000J0D01*
G01*
X128790225Y-103499999D02*
G75*
G02*
X134030225Y-103499999I2620000J0D01*
G01*
%TO.C,R2-4K7*%
X108630000Y-77000000D02*
X109580000Y-77000000D01*
X109580000Y-76080000D02*
X109580000Y-77920000D01*
X109580000Y-77920000D02*
X113420000Y-77920000D01*
X113420000Y-76080000D02*
X109580000Y-76080000D01*
X113420000Y-77920000D02*
X113420000Y-76080000D01*
X114370000Y-77000000D02*
X113420000Y-77000000D01*
%TO.C,R1-4K7*%
X94630000Y-77000000D02*
X95580000Y-77000000D01*
X95580000Y-76080000D02*
X95580000Y-77920000D01*
X95580000Y-77920000D02*
X99420000Y-77920000D01*
X99420000Y-76080000D02*
X95580000Y-76080000D01*
X99420000Y-77920000D02*
X99420000Y-76080000D01*
X100370000Y-77000000D02*
X99420000Y-77000000D01*
%TO.C,10K1*%
X120580000Y-87080000D02*
X120580000Y-90920000D01*
X120580000Y-90920000D02*
X122420000Y-90920000D01*
X121500000Y-86130000D02*
X121500000Y-87080000D01*
X121500000Y-91870000D02*
X121500000Y-90920000D01*
X122420000Y-87080000D02*
X120580000Y-87080000D01*
X122420000Y-90920000D02*
X122420000Y-87080000D01*
%TO.C,J2*%
X93310000Y-112120000D02*
X93310000Y-117320000D01*
X141630000Y-112120000D02*
X93310000Y-112120000D01*
X141630000Y-112120000D02*
X141630000Y-114720000D01*
X141630000Y-114720000D02*
X144230000Y-114720000D01*
X142900000Y-112120000D02*
X144230000Y-112120000D01*
X144230000Y-112120000D02*
X144230000Y-113450000D01*
X144230000Y-114720000D02*
X144230000Y-117320000D01*
X144230000Y-117320000D02*
X93310000Y-117320000D01*
%TO.C,16mhz1*%
X108300000Y-99000000D02*
G75*
G02*
X111700000Y-99000000I1700000J0D01*
G01*
X111700000Y-99000000D02*
G75*
G02*
X108300000Y-99000000I-1700000J0D01*
G01*
%TO.C,R3-4K7*%
X122630000Y-77000000D02*
X123580000Y-77000000D01*
X123580000Y-76080000D02*
X123580000Y-77920000D01*
X123580000Y-77920000D02*
X127420000Y-77920000D01*
X127420000Y-76080000D02*
X123580000Y-76080000D01*
X127420000Y-77920000D02*
X127420000Y-76080000D01*
X128370000Y-77000000D02*
X127420000Y-77000000D01*
%TO.C,H - L*%
X134940000Y-75940000D02*
X134940000Y-78060000D01*
X137000000Y-75940000D02*
X134940000Y-75940000D01*
X137000000Y-75940000D02*
X137000000Y-78060000D01*
X137000000Y-78060000D02*
X134940000Y-78060000D01*
X138000000Y-75940000D02*
X139060000Y-75940000D01*
X139060000Y-75940000D02*
X139060000Y-77000000D01*
%TO.C,C4*%
X137354113Y-103783999D02*
X137354113Y-103215999D01*
X137394113Y-104017999D02*
X137394113Y-102981999D01*
X137434113Y-104176999D02*
X137434113Y-102822999D01*
X137474113Y-104304999D02*
X137474113Y-102694999D01*
X137514113Y-104414999D02*
X137514113Y-102584999D01*
X137554113Y-104510999D02*
X137554113Y-102488999D01*
X137594113Y-104597999D02*
X137594113Y-102401999D01*
X137634113Y-104677999D02*
X137634113Y-102321999D01*
X137674113Y-104750999D02*
X137674113Y-102248999D01*
X137714113Y-104818999D02*
X137714113Y-102180999D01*
X137754113Y-104882999D02*
X137754113Y-102116999D01*
X137794113Y-104942999D02*
X137794113Y-102056999D01*
X137834113Y-104999999D02*
X137834113Y-101999999D01*
X137874113Y-105053999D02*
X137874113Y-101945999D01*
X137914113Y-105104999D02*
X137914113Y-101894999D01*
X137954113Y-102459999D02*
X137954113Y-101846999D01*
X137954113Y-105152999D02*
X137954113Y-104539999D01*
X137994113Y-102459999D02*
X137994113Y-101800999D01*
X137994113Y-105198999D02*
X137994113Y-104539999D01*
X138034113Y-102459999D02*
X138034113Y-101756999D01*
X138034113Y-105242999D02*
X138034113Y-104539999D01*
X138074113Y-102459999D02*
X138074113Y-101714999D01*
X138074113Y-105284999D02*
X138074113Y-104539999D01*
X138114113Y-102459999D02*
X138114113Y-101673999D01*
X138114113Y-105325999D02*
X138114113Y-104539999D01*
X138154113Y-102459999D02*
X138154113Y-101635999D01*
X138154113Y-105363999D02*
X138154113Y-104539999D01*
X138194113Y-102459999D02*
X138194113Y-101598999D01*
X138194113Y-105400999D02*
X138194113Y-104539999D01*
X138234113Y-102459999D02*
X138234113Y-101562999D01*
X138234113Y-105436999D02*
X138234113Y-104539999D01*
X138274113Y-102459999D02*
X138274113Y-101528999D01*
X138274113Y-105470999D02*
X138274113Y-104539999D01*
X138314113Y-102459999D02*
X138314113Y-101495999D01*
X138314113Y-105503999D02*
X138314113Y-104539999D01*
X138354113Y-102459999D02*
X138354113Y-101464999D01*
X138354113Y-105534999D02*
X138354113Y-104539999D01*
X138394113Y-102459999D02*
X138394113Y-101434999D01*
X138394113Y-105564999D02*
X138394113Y-104539999D01*
X138434113Y-102459999D02*
X138434113Y-101404999D01*
X138434113Y-105594999D02*
X138434113Y-104539999D01*
X138474113Y-102459999D02*
X138474113Y-101377999D01*
X138474113Y-105621999D02*
X138474113Y-104539999D01*
X138514113Y-102459999D02*
X138514113Y-101350999D01*
X138514113Y-105648999D02*
X138514113Y-104539999D01*
X138554113Y-102459999D02*
X138554113Y-101324999D01*
X138554113Y-105674999D02*
X138554113Y-104539999D01*
X138594113Y-102459999D02*
X138594113Y-101299999D01*
X138594113Y-105699999D02*
X138594113Y-104539999D01*
X138634113Y-102459999D02*
X138634113Y-101275999D01*
X138634113Y-105723999D02*
X138634113Y-104539999D01*
X138674113Y-102459999D02*
X138674113Y-101252999D01*
X138674113Y-105746999D02*
X138674113Y-104539999D01*
X138714113Y-102459999D02*
X138714113Y-101231999D01*
X138714113Y-105767999D02*
X138714113Y-104539999D01*
X138754113Y-102459999D02*
X138754113Y-101209999D01*
X138754113Y-105789999D02*
X138754113Y-104539999D01*
X138794113Y-102459999D02*
X138794113Y-101189999D01*
X138794113Y-105809999D02*
X138794113Y-104539999D01*
X138834113Y-102459999D02*
X138834113Y-101170999D01*
X138834113Y-105828999D02*
X138834113Y-104539999D01*
X138874113Y-102459999D02*
X138874113Y-101151999D01*
X138874113Y-105847999D02*
X138874113Y-104539999D01*
X138914113Y-102459999D02*
X138914113Y-101134999D01*
X138914113Y-105864999D02*
X138914113Y-104539999D01*
X138954113Y-102459999D02*
X138954113Y-101117999D01*
X138954113Y-105881999D02*
X138954113Y-104539999D01*
X138994113Y-102459999D02*
X138994113Y-101101999D01*
X138994113Y-105897999D02*
X138994113Y-104539999D01*
X139034113Y-102459999D02*
X139034113Y-101085999D01*
X139034113Y-105913999D02*
X139034113Y-104539999D01*
X139074113Y-102459999D02*
X139074113Y-101071999D01*
X139074113Y-105927999D02*
X139074113Y-104539999D01*
X139114113Y-102459999D02*
X139114113Y-101057999D01*
X139114113Y-105941999D02*
X139114113Y-104539999D01*
X139154113Y-102459999D02*
X139154113Y-101044999D01*
X139154113Y-105954999D02*
X139154113Y-104539999D01*
X139194113Y-102459999D02*
X139194113Y-101031999D01*
X139194113Y-105967999D02*
X139194113Y-104539999D01*
X139234113Y-102459999D02*
X139234113Y-101019999D01*
X139234113Y-105979999D02*
X139234113Y-104539999D01*
X139275113Y-102459999D02*
X139275113Y-101008999D01*
X139275113Y-105990999D02*
X139275113Y-104539999D01*
X139315113Y-102459999D02*
X139315113Y-100998999D01*
X139315113Y-106000999D02*
X139315113Y-104539999D01*
X139355113Y-102459999D02*
X139355113Y-100988999D01*
X139355113Y-106010999D02*
X139355113Y-104539999D01*
X139395113Y-102459999D02*
X139395113Y-100979999D01*
X139395113Y-106019999D02*
X139395113Y-104539999D01*
X139435113Y-102459999D02*
X139435113Y-100971999D01*
X139435113Y-106027999D02*
X139435113Y-104539999D01*
X139475113Y-102459999D02*
X139475113Y-100963999D01*
X139475113Y-106035999D02*
X139475113Y-104539999D01*
X139515113Y-102459999D02*
X139515113Y-100956999D01*
X139515113Y-106042999D02*
X139515113Y-104539999D01*
X139555113Y-102459999D02*
X139555113Y-100949999D01*
X139555113Y-106049999D02*
X139555113Y-104539999D01*
X139595113Y-102459999D02*
X139595113Y-100943999D01*
X139595113Y-106055999D02*
X139595113Y-104539999D01*
X139635113Y-102459999D02*
X139635113Y-100938999D01*
X139635113Y-106060999D02*
X139635113Y-104539999D01*
X139675113Y-102459999D02*
X139675113Y-100934999D01*
X139675113Y-106064999D02*
X139675113Y-104539999D01*
X139715113Y-102459999D02*
X139715113Y-100930999D01*
X139715113Y-106068999D02*
X139715113Y-104539999D01*
X139755113Y-102459999D02*
X139755113Y-100926999D01*
X139755113Y-106072999D02*
X139755113Y-104539999D01*
X139795113Y-102459999D02*
X139795113Y-100923999D01*
X139795113Y-106075999D02*
X139795113Y-104539999D01*
X139835113Y-102459999D02*
X139835113Y-100921999D01*
X139835113Y-106077999D02*
X139835113Y-104539999D01*
X139875113Y-102459999D02*
X139875113Y-100920999D01*
X139875113Y-106078999D02*
X139875113Y-104539999D01*
X139915113Y-102459999D02*
X139915113Y-100919999D01*
X139915113Y-106079999D02*
X139915113Y-104539999D01*
X139955113Y-102459999D02*
X139955113Y-100919999D01*
X139955113Y-106079999D02*
X139955113Y-104539999D01*
X142509888Y-105224999D02*
X142509888Y-104724999D01*
X142759888Y-104974999D02*
X142259888Y-104974999D01*
X142575113Y-103499999D02*
G75*
G02*
X137335113Y-103499999I-2620000J0D01*
G01*
X137335113Y-103499999D02*
G75*
G02*
X142575113Y-103499999I2620000J0D01*
G01*
%TO.C,22pF2*%
X95790000Y-106000000D02*
X96480000Y-106000000D01*
X96480000Y-104580000D02*
X96480000Y-107420000D01*
X96480000Y-107420000D02*
X100520000Y-107420000D01*
X100520000Y-104580000D02*
X96480000Y-104580000D01*
X100520000Y-107420000D02*
X100520000Y-104580000D01*
X101210000Y-106000000D02*
X100520000Y-106000000D01*
%TD*%
M02*
