%TF.GenerationSoftware,KiCad,Pcbnew,8.0.0*%
%TF.CreationDate,2024-02-26T14:23:39+00:00*%
%TF.ProjectId,piHat,70694861-742e-46b6-9963-61645f706362,rev?*%
%TF.SameCoordinates,Original*%
%TF.FileFunction,Soldermask,Bot*%
%TF.FilePolarity,Negative*%
%FSLAX46Y46*%
G04 Gerber Fmt 4.6, Leading zero omitted, Abs format (unit mm)*
G04 Created by KiCad (PCBNEW 8.0.0) date 2024-02-26 14:23:39*
%MOMM*%
%LPD*%
G01*
G04 APERTURE LIST*
%ADD10R,1.600000X1.600000*%
%ADD11O,1.600000X1.600000*%
%ADD12C,1.600000*%
%ADD13C,1.400000*%
%ADD14O,1.400000X1.400000*%
%ADD15R,1.700000X1.700000*%
%ADD16O,1.700000X1.700000*%
%ADD17C,1.000000*%
%ADD18R,1.350000X1.350000*%
%ADD19O,1.350000X1.350000*%
G04 APERTURE END LIST*
D10*
%TO.C,U2*%
X130200000Y-92800000D03*
D11*
X132740000Y-92800000D03*
X135280000Y-92800000D03*
X137820000Y-92800000D03*
X137820000Y-85180000D03*
X135280000Y-85180000D03*
X132740000Y-85180000D03*
X130200000Y-85180000D03*
%TD*%
D12*
%TO.C,22pF1*%
X102250000Y-99000000D03*
D11*
X94750000Y-99000000D03*
%TD*%
D13*
%TO.C,20K1*%
X121500000Y-105810000D03*
D14*
X121500000Y-98190000D03*
%TD*%
D10*
%TO.C,U1*%
X93800000Y-92620000D03*
D11*
X96340000Y-92620000D03*
X98880000Y-92620000D03*
X101420000Y-92620000D03*
X103960000Y-92620000D03*
X106500000Y-92620000D03*
X109040000Y-92620000D03*
X111580000Y-92620000D03*
X114120000Y-92620000D03*
X114120000Y-85000000D03*
X111580000Y-85000000D03*
X109040000Y-85000000D03*
X106500000Y-85000000D03*
X103960000Y-85000000D03*
X101420000Y-85000000D03*
X98880000Y-85000000D03*
X96340000Y-85000000D03*
X93800000Y-85000000D03*
%TD*%
D10*
%TO.C,C3*%
X132410225Y-103499999D03*
D12*
X130410225Y-103499999D03*
%TD*%
D13*
%TO.C,R2-4K7*%
X107690000Y-77000000D03*
D14*
X115310000Y-77000000D03*
%TD*%
D13*
%TO.C,R1-4K7*%
X93690000Y-77000000D03*
D14*
X101310000Y-77000000D03*
%TD*%
D13*
%TO.C,10K1*%
X121500000Y-85190000D03*
D14*
X121500000Y-92810000D03*
%TD*%
D15*
%TO.C,J2*%
X142900000Y-113450000D03*
D16*
X142900000Y-115990000D03*
X140360000Y-113450000D03*
X140360000Y-115990000D03*
X137820000Y-113450000D03*
X137820000Y-115990000D03*
X135280000Y-113450000D03*
X135280000Y-115990000D03*
X132740000Y-113450000D03*
X132740000Y-115990000D03*
X130200000Y-113450000D03*
X130200000Y-115990000D03*
X127660000Y-113450000D03*
X127660000Y-115990000D03*
X125120000Y-113450000D03*
X125120000Y-115990000D03*
X122580000Y-113450000D03*
X122580000Y-115990000D03*
X120040000Y-113450000D03*
X120040000Y-115990000D03*
X117500000Y-113450000D03*
X117500000Y-115990000D03*
X114960000Y-113450000D03*
X114960000Y-115990000D03*
X112420000Y-113450000D03*
X112420000Y-115990000D03*
X109880000Y-113450000D03*
X109880000Y-115990000D03*
X107340000Y-113450000D03*
X107340000Y-115990000D03*
X104800000Y-113450000D03*
X104800000Y-115990000D03*
X102260000Y-113450000D03*
X102260000Y-115990000D03*
X99720000Y-113450000D03*
X99720000Y-115990000D03*
X97180000Y-113450000D03*
X97180000Y-115990000D03*
X94640000Y-113450000D03*
X94640000Y-115990000D03*
%TD*%
D17*
%TO.C,16mhz1*%
X109050000Y-99000000D03*
X110950000Y-99000000D03*
%TD*%
D13*
%TO.C,R3-4K7*%
X121690000Y-77000000D03*
D14*
X129310000Y-77000000D03*
%TD*%
D18*
%TO.C,H - L*%
X138000000Y-77000000D03*
D19*
X136000000Y-77000000D03*
%TD*%
D10*
%TO.C,C4*%
X140955113Y-103499999D03*
D12*
X138955113Y-103499999D03*
%TD*%
%TO.C,22pF2*%
X102250000Y-106000000D03*
D11*
X94750000Y-106000000D03*
%TD*%
M02*
