M48
; DRILL file {KiCad 8.0.0} date 2024-02-26T14:23:42+0000
; FORMAT={-:-/ absolute / inch / decimal}
; #@! TF.CreationDate,2024-02-26T14:23:42+00:00
; #@! TF.GenerationSoftware,Kicad,Pcbnew,8.0.0
; #@! TF.FileFunction,Plated,1,2,PTH
FMAT,2
INCH
; #@! TA.AperFunction,Plated,PTH,ViaDrill
T1C0.0118
; #@! TA.AperFunction,Plated,PTH,ComponentDrill
T2C0.0197
; #@! TA.AperFunction,Plated,PTH,ComponentDrill
T3C0.0276
; #@! TA.AperFunction,Plated,PTH,ComponentDrill
T4C0.0315
; #@! TA.AperFunction,Plated,PTH,ComponentDrill
T5C0.0394
%
G90
G05
T1
X3.8386Y-3.5433
X4.3307Y-3.248
T2
X4.2933Y-3.8976
X4.3681Y-3.8976
T3
X3.6886Y-3.0315
X3.9886Y-3.0315
X4.2398Y-3.0315
X4.5398Y-3.0315
X4.7835Y-3.3539
X4.7835Y-3.6539
X4.7835Y-3.8657
X4.7835Y-4.1657
X4.7909Y-3.0315
X5.0909Y-3.0315
T4
X3.6929Y-3.3465
X3.6929Y-3.6465
X3.7303Y-3.8976
X3.7303Y-4.1732
X3.7929Y-3.3465
X3.7929Y-3.6465
X3.8929Y-3.3465
X3.8929Y-3.6465
X3.9929Y-3.3465
X3.9929Y-3.6465
X4.0256Y-3.8976
X4.0256Y-4.1732
X4.0929Y-3.3465
X4.0929Y-3.6465
X4.1929Y-3.3465
X4.1929Y-3.6465
X4.2929Y-3.3465
X4.2929Y-3.6465
X4.3929Y-3.3465
X4.3929Y-3.6465
X4.4929Y-3.3465
X4.4929Y-3.6465
X5.126Y-3.3535
X5.126Y-3.6535
X5.1343Y-4.0748
X5.213Y-4.0748
X5.226Y-3.3535
X5.226Y-3.6535
X5.326Y-3.3535
X5.326Y-3.6535
X5.3543Y-3.0315
X5.426Y-3.3535
X5.426Y-3.6535
X5.4331Y-3.0315
X5.4707Y-4.0748
X5.5494Y-4.0748
T5
X3.726Y-4.4665
X3.726Y-4.5665
X3.826Y-4.4665
X3.826Y-4.5665
X3.926Y-4.4665
X3.926Y-4.5665
X4.026Y-4.4665
X4.026Y-4.5665
X4.126Y-4.4665
X4.126Y-4.5665
X4.226Y-4.4665
X4.226Y-4.5665
X4.326Y-4.4665
X4.326Y-4.5665
X4.426Y-4.4665
X4.426Y-4.5665
X4.526Y-4.4665
X4.526Y-4.5665
X4.626Y-4.4665
X4.626Y-4.5665
X4.726Y-4.4665
X4.726Y-4.5665
X4.826Y-4.4665
X4.826Y-4.5665
X4.926Y-4.4665
X4.926Y-4.5665
X5.026Y-4.4665
X5.026Y-4.5665
X5.126Y-4.4665
X5.126Y-4.5665
X5.226Y-4.4665
X5.226Y-4.5665
X5.326Y-4.4665
X5.326Y-4.5665
X5.426Y-4.4665
X5.426Y-4.5665
X5.526Y-4.4665
X5.526Y-4.5665
X5.626Y-4.4665
X5.626Y-4.5665
M30
